<svg xmlns="http://www.w3.org/2000/svg" width="1800" height="1250" viewBox="0 0 1800 1250">
  <defs>
    <style>
      .bg{fill:#f5f0e8}.card{fill:#fffaf2;stroke:#e4d8c8;stroke-width:3}.green{fill:#dfeee4}.yellow{fill:#fff0c4}.red{fill:#ffe4e1}.blue{fill:#dce8ff}.text{font-family:Arial,sans-serif;fill:#17251f;font-size:30px;font-weight:700}.small{font-size:22px;font-weight:500;fill:#43554b}.title{font-size:54px;font-weight:900}.arrow{stroke:#397a63;stroke-width:5;fill:none;marker-end:url(#arrow)}
    </style>
    <marker id="arrow" markerWidth="10" markerHeight="10" refX="8" refY="3" orient="auto" markerUnits="strokeWidth"><path d="M0,0 L0,6 L9,3 z" fill="#397a63"/></marker>
  </defs>
  <rect class="bg" width="1800" height="1250"/>
  <text x="900" y="85" text-anchor="middle" class="text title">עוגן AI - מערכת תמיכה וניווט למשוחררים</text>
  <text x="900" y="125" text-anchor="middle" class="small">30 מוחות בכיתה · 30 סוכנים מתמחים · מענה בטוח, אנושי ומוטמע</text>

  <rect x="665" y="175" width="470" height="110" rx="28" class="card blue"/>
  <text x="900" y="225" text-anchor="middle" class="text">פנייה חופשית</text>
  <text x="900" y="258" text-anchor="middle" class="small">"אני לא יודע למי לפנות"</text>

  <path class="arrow" d="M900 285 V350"/>
  <rect x="665" y="350" width="470" height="110" rx="28" class="card"/>
  <text x="900" y="397" text-anchor="middle" class="text">סוכן Intake</text>
  <text x="900" y="431" text-anchor="middle" class="small">מבין צורך בשפה פשוטה</text>

  <path class="arrow" d="M900 460 V525"/>
  <rect x="665" y="525" width="470" height="120" rx="28" class="card yellow"/>
  <text x="900" y="575" text-anchor="middle" class="text">Risk Guard</text>
  <text x="900" y="611" text-anchor="middle" class="small">ירוק / צהוב / אדום / קריטי</text>

  <path class="arrow" d="M665 585 H400"/>
  <rect x="90" y="515" width="310" height="140" rx="26" class="card green"/>
  <text x="245" y="570" text-anchor="middle" class="text">ירוק/צהוב</text>
  <text x="245" y="606" text-anchor="middle" class="small">טיוטה בטוחה + צעד הבא</text>

  <path class="arrow" d="M1135 585 H1400"/>
  <rect x="1400" y="515" width="310" height="140" rx="26" class="card red"/>
  <text x="1555" y="570" text-anchor="middle" class="text">אדום/קריטי</text>
  <text x="1555" y="606" text-anchor="middle" class="small">מעבר אנושי / חירום</text>

  <path class="arrow" d="M245 655 V745 H620"/>
  <path class="arrow" d="M1555 655 V745 H1180"/>

  <rect x="620" y="715" width="560" height="150" rx="30" class="card"/>
  <text x="900" y="770" text-anchor="middle" class="text">Orchestrator ב-n8n</text>
  <text x="900" y="807" text-anchor="middle" class="small">מנתב לסוכנים, שומר לוג, מבקש אישור</text>
  <text x="900" y="840" text-anchor="middle" class="small">Ollama מקומי · מינימום נודים · מקסימום בקרה</text>

  <path class="arrow" d="M900 865 V935"/>
  <rect x="120" y="960" width="300" height="120" rx="24" class="card"/>
  <text x="270" y="1010" text-anchor="middle" class="text">זכויות</text><text x="270" y="1043" text-anchor="middle" class="small">הסבר ומפת מסלול</text>
  <rect x="445" y="960" width="300" height="120" rx="24" class="card"/>
  <text x="595" y="1010" text-anchor="middle" class="text">טיפול</text><text x="595" y="1043" text-anchor="middle" class="small">איתור נתיבי פנייה</text>
  <rect x="770" y="960" width="300" height="120" rx="24" class="card"/>
  <text x="920" y="1010" text-anchor="middle" class="text">מימון</text><text x="920" y="1043" text-anchor="middle" class="small">אפשרויות סיוע</text>
  <rect x="1095" y="960" width="300" height="120" rx="24" class="card"/>
  <text x="1245" y="1010" text-anchor="middle" class="text">ליווי</text><text x="1245" y="1043" text-anchor="middle" class="small">עובד סוציאלי/קהילה</text>
  <rect x="1420" y="960" width="300" height="120" rx="24" class="card"/>
  <text x="1570" y="1010" text-anchor="middle" class="text">מעקב</text><text x="1570" y="1043" text-anchor="middle" class="small">תזכורות עדינות</text>

  <path class="arrow" d="M900 935 C900 920 270 920 270 960"/>
  <path class="arrow" d="M900 935 C900 920 595 920 595 960"/>
  <path class="arrow" d="M900 935 V960"/>
  <path class="arrow" d="M900 935 C900 920 1245 920 1245 960"/>
  <path class="arrow" d="M900 935 C900 920 1570 920 1570 960"/>

  <text x="900" y="1160" text-anchor="middle" class="small">הבטחת חוויה: אין טופס קר, אין שיפוט, אין הבטחות שווא - יש צעד ראשון ברור, בטוח ומכבד.</text>
</svg>
